<svg id="visual" viewBox="0 0 900 600" width="900" height="600" xmlns="http://www.w3.org/2000/svg" xmlns:xlink="http://www.w3.org/1999/xlink" version="1.1"><rect x="0" y="0" width="900" height="600" fill="#ffffff"></rect><path d="M581 600L590.8 585.7C600.7 571.3 620.3 542.7 625.8 514.2C631.3 485.7 622.7 457.3 606.5 428.8C590.3 400.3 566.7 371.7 567 343C567.3 314.3 591.7 285.7 605.5 257C619.3 228.3 622.7 199.7 611.2 171.2C599.7 142.7 573.3 114.3 578.7 85.8C584 57.3 621 28.7 639.5 14.3L658 0L900 0L900 14.3C900 28.7 900 57.3 900 85.8C900 114.3 900 142.7 900 171.2C900 199.7 900 228.3 900 257C900 285.7 900 314.3 900 343C900 371.7 900 400.3 900 428.8C900 457.3 900 485.7 900 514.2C900 542.7 900 571.3 900 585.7L900 600Z" fill="#223677"></path><path d="M680 600L674.3 585.7C668.7 571.3 657.3 542.7 662.8 514.2C668.3 485.7 690.7 457.3 697.8 428.8C705 400.3 697 371.7 695.3 343C693.7 314.3 698.3 285.7 703.5 257C708.7 228.3 714.3 199.7 700.3 171.2C686.3 142.7 652.7 114.3 639.7 85.8C626.7 57.3 634.3 28.7 638.2 14.3L642 0L900 0L900 14.3C900 28.7 900 57.3 900 85.8C900 114.3 900 142.7 900 171.2C900 199.7 900 228.3 900 257C900 285.7 900 314.3 900 343C900 371.7 900 400.3 900 428.8C900 457.3 900 485.7 900 514.2C900 542.7 900 571.3 900 585.7L900 600Z" fill="#5b6095"></path><path d="M718 600L715.3 585.7C712.7 571.3 707.3 542.7 715 514.2C722.7 485.7 743.3 457.3 751.2 428.8C759 400.3 754 371.7 741.2 343C728.3 314.3 707.7 285.7 692.8 257C678 228.3 669 199.7 665.3 171.2C661.7 142.7 663.3 114.3 675.2 85.8C687 57.3 709 28.7 720 14.3L731 0L900 0L900 14.3C900 28.7 900 57.3 900 85.8C900 114.3 900 142.7 900 171.2C900 199.7 900 228.3 900 257C900 285.7 900 314.3 900 343C900 371.7 900 400.3 900 428.8C900 457.3 900 485.7 900 514.2C900 542.7 900 571.3 900 585.7L900 600Z" fill="#8d8eb4"></path><path d="M726 600L737 585.7C748 571.3 770 542.7 782.2 514.2C794.3 485.7 796.7 457.3 786.7 428.8C776.7 400.3 754.3 371.7 741.7 343C729 314.3 726 285.7 733.5 257C741 228.3 759 199.7 766.2 171.2C773.3 142.7 769.7 114.3 770.3 85.8C771 57.3 776 28.7 778.5 14.3L781 0L900 0L900 14.3C900 28.7 900 57.3 900 85.8C900 114.3 900 142.7 900 171.2C900 199.7 900 228.3 900 257C900 285.7 900 314.3 900 343C900 371.7 900 400.3 900 428.8C900 457.3 900 485.7 900 514.2C900 542.7 900 571.3 900 585.7L900 600Z" fill="#bfbfd3"></path><path d="M841 600L844.7 585.7C848.3 571.3 855.7 542.7 852.8 514.2C850 485.7 837 457.3 828.7 428.8C820.3 400.3 816.7 371.7 819.5 343C822.3 314.3 831.7 285.7 831.7 257C831.7 228.3 822.3 199.7 814.2 171.2C806 142.7 799 114.3 797.5 85.8C796 57.3 800 28.7 802 14.3L804 0L900 0L900 14.3C900 28.7 900 57.3 900 85.8C900 114.3 900 142.7 900 171.2C900 199.7 900 228.3 900 257C900 285.7 900 314.3 900 343C900 371.7 900 400.3 900 428.8C900 457.3 900 485.7 900 514.2C900 542.7 900 571.3 900 585.7L900 600Z" fill="#f2f2f2"></path></svg>